<?xml version="1.0" encoding="UTF-8"?>
<svg width="36px" height="36px" viewBox="0 0 36 36" version="1.1" xmlns="http://www.w3.org/2000/svg" xmlns:xlink="http://www.w3.org/1999/xlink">
    <title>instagram</title>
    <g id="login" stroke="none" stroke-width="1" fill="none" fill-rule="evenodd" opacity="0.502278646">
        <g id="den/login-desktop-alt2" transform="translate(-991.000000, -803.000000)">
            <g id="form" transform="translate(767.000000, 16.000000)">
                <g id="socials" transform="translate(120.000000, 787.000000)">
                    <g id="instagram" transform="translate(104.000000, 0.000000)">
                        <rect id="Rectangle" x="0" y="0" width="36" height="36"></rect>
                        <circle id="Oval" stroke="#000000" stroke-width="1.63636364" cx="18" cy="18" r="17.1818182"></circle>
                        <path d="M23.0193492,9.81818182 L12.9806508,9.81818182 C11.2373001,9.81818182 9.81818182,11.236338 9.81818182,12.9806508 L9.81818182,23.0193492 C9.81818182,24.763662 11.2373001,26.1818182 12.9806508,26.1818182 L23.0193492,26.1818182 C24.7626999,26.1818182 26.1818182,24.763662 26.1818182,23.0193492 L26.1818182,12.9806508 C26.1818182,11.236338 24.7626999,9.81818182 23.0193492,9.81818182 L23.0193492,9.81818182 Z M23.9266228,11.7048875 L24.2883777,11.7029633 L24.2883777,14.4767382 L21.5232618,14.4853972 L21.5136406,11.7116223 L23.9266228,11.7048875 L23.9266228,11.7048875 Z M15.6649491,16.3201488 C16.1883392,15.5947148 17.038848,15.1194304 18,15.1194304 C18.961152,15.1194304 19.8116608,15.5947148 20.3350509,16.3201488 C20.6766014,16.7935089 20.8805696,17.3727016 20.8805696,18 C20.8805696,19.5874882 19.5884504,20.8796075 18,20.8796075 C16.4125118,20.8796075 15.1203925,19.5874882 15.1203925,18 C15.1203925,17.3727016 15.3243607,16.7935089 15.6649491,16.3201488 L15.6649491,16.3201488 Z M24.5875951,23.0193492 C24.5875951,23.8842897 23.8842897,24.5875951 23.0193492,24.5875951 L12.9806508,24.5875951 C12.1157103,24.5875951 11.4124049,23.8842897 11.4124049,23.0193492 L11.4124049,16.3201488 L13.8561746,16.3201488 C13.6445095,16.8396904 13.5261695,17.4063756 13.5261695,18 C13.5261695,20.4668605 15.5331395,22.4747926 18,22.4747926 C20.4678226,22.4747926 22.4747926,20.4668605 22.4747926,18 C22.4747926,17.4063756 22.3545284,16.8396904 22.1447875,16.3201488 L24.5875951,16.3201488 L24.5875951,23.0193492 L24.5875951,23.0193492 Z" id="Shape" fill="#000000"></path>
                    </g>
                </g>
            </g>
        </g>
    </g>
</svg>