<?xml version="1.0" encoding="UTF-8"?>
<svg width="36px" height="36px" viewBox="0 0 36 36" version="1.1" xmlns="http://www.w3.org/2000/svg" xmlns:xlink="http://www.w3.org/1999/xlink">
    <title>twitter</title>
    <g id="login" stroke="none" stroke-width="1" fill="none" fill-rule="evenodd" opacity="0.502278646">
        <g id="den/login-desktop-alt2" transform="translate(-939.000000, -803.000000)">
            <g id="form" transform="translate(767.000000, 16.000000)">
                <g id="socials" transform="translate(120.000000, 787.000000)">
                    <g id="twitter" transform="translate(52.000000, 0.000000)">
                        <rect id="Rectangle" x="0" y="0" width="36" height="36"></rect>
                        <circle id="Oval" stroke="#000000" stroke-width="1.63636364" cx="18" cy="18" r="17.1818182"></circle>
                        <path d="M24.9759401,13.7828713 C25.7040772,13.3233753 26.2627863,12.5947763 26.5249964,11.7268394 C25.8432503,12.1533623 25.0899006,12.4618203 24.2861259,12.628813 C23.6447198,11.9055323 22.7279931,11.4545455 21.7134419,11.4545455 C19.7670365,11.4545455 18.1897421,13.1191549 18.1897421,15.1719959 C18.1897421,15.4634355 18.2189886,15.7474295 18.2794986,16.0186598 C15.350814,15.8633672 12.7539259,14.3848962 11.0142631,12.1342166 C10.7107045,12.6851864 10.5372425,13.3233753 10.5372425,14.0041101 C10.5372425,15.2932517 11.1594871,16.4313553 12.1054603,17.0993264 C11.5275897,17.0801807 10.9840081,16.9110606 10.507996,16.6345121 L10.507996,16.680249 C10.507996,18.482069 11.7222302,19.9850039 13.3368391,20.3253713 C13.04034,20.4125904 12.7297219,20.4562 12.4070019,20.4562 C12.1800893,20.4562 11.9582193,20.4338634 11.7444172,20.3902538 C12.1921913,21.8665975 13.4941651,22.9430095 15.0371704,22.971728 C13.8299957,23.96943 12.3101859,24.5629456 10.659271,24.5629456 C10.3748739,24.5629456 10.0935024,24.5469909 9.81818182,24.5118905 C11.3783317,25.5659659 13.2309465,26.1818182 15.221726,26.1818182 C21.7063824,26.1818182 25.2502521,20.516828 25.2502521,15.603837 C25.2502521,15.4421625 25.2482351,15.2815516 25.2411756,15.123068 C25.9299813,14.5986895 26.5290304,13.9434822 27,13.1978648 C26.3676704,13.493559 25.6879412,13.6935249 24.9759401,13.7828713 Z" id="Shape" fill="#000000"></path>
                    </g>
                </g>
            </g>
        </g>
    </g>
</svg>